<?xml version="1.0" encoding="UTF-8"?>
<svg xmlns="http://www.w3.org/2000/svg" xmlns:xlink="http://www.w3.org/1999/xlink" width="16px" height="16px" viewBox="0 0 16 16" version="1.1">
<g id="surface1">
<path style=" stroke:none;fill-rule:nonzero;fill:rgb(62.352941%,62.352941%,62.352941%);fill-opacity:1;" d="M 8 0 C 3.582031 0 0 3.582031 0 8 C 0 11.535156 2.292969 14.535156 5.472656 15.589844 C 5.871094 15.664062 6 15.417969 6 15.207031 L 6 13.71875 C 3.773438 14.203125 3.3125 12.773438 3.3125 12.773438 C 2.949219 11.847656 2.421875 11.601562 2.421875 11.601562 C 1.695312 11.105469 2.476562 11.117188 2.476562 11.117188 C 3.28125 11.171875 3.703125 11.941406 3.703125 11.941406 C 4.417969 13.164062 5.574219 12.8125 6.03125 12.605469 C 6.101562 12.089844 6.3125 11.734375 6.539062 11.535156 C 4.761719 11.332031 2.894531 10.648438 2.894531 7.582031 C 2.894531 6.707031 3.207031 5.996094 3.71875 5.433594 C 3.636719 5.234375 3.363281 4.417969 3.796875 3.316406 C 3.796875 3.316406 4.46875 3.101562 5.996094 4.136719 C 6.636719 3.960938 7.320312 3.871094 8 3.867188 C 8.679688 3.871094 9.363281 3.960938 10.003906 4.136719 C 11.53125 3.101562 12.203125 3.316406 12.203125 3.316406 C 12.636719 4.421875 12.363281 5.234375 12.28125 5.433594 C 12.792969 5.996094 13.105469 6.710938 13.105469 7.582031 C 13.105469 10.65625 11.234375 11.332031 9.453125 11.53125 C 9.738281 11.777344 10 12.265625 10 13.011719 L 10 15.207031 C 10 15.417969 10.128906 15.667969 10.535156 15.589844 C 13.710938 14.53125 16 11.535156 16 8 C 16 3.582031 12.417969 0 8 0 Z M 8 0 "/>
</g>
</svg>
